<svg width="15" height="15" viewBox="0 0 15 15" fill="none" xmlns="http://www.w3.org/2000/svg">
<path d="M3.75 6.875C3.75 5.1075 3.75 4.22313 4.29938 3.67438C4.84813 3.125 5.7325 3.125 7.5 3.125H9.375C11.1425 3.125 12.0269 3.125 12.5756 3.67438C13.125 4.22313 13.125 5.1075 13.125 6.875V10C13.125 11.7675 13.125 12.6519 12.5756 13.2006C12.0269 13.75 11.1425 13.75 9.375 13.75H7.5C5.7325 13.75 4.84813 13.75 4.29938 13.2006C3.75 12.6519 3.75 11.7675 3.75 10V6.875Z" stroke="#6E6E6E" stroke-width="0.9375"/>
<path d="M3.75 11.875C3.25272 11.875 2.77581 11.6775 2.42417 11.3258C2.07254 10.9742 1.875 10.4973 1.875 10V6.25C1.875 3.89313 1.875 2.71437 2.6075 1.9825C3.34 1.25062 4.51813 1.25 6.875 1.25H9.375C9.87228 1.25 10.3492 1.44754 10.7008 1.79917C11.0525 2.15081 11.25 2.62772 11.25 3.125" stroke="#6E6E6E" stroke-width="0.9375"/>
</svg>
